<svg width="24" height="24" viewBox="0 0 24 24" fill="none" xmlns="http://www.w3.org/2000/svg">
<path d="M3.09805 18.0856V18.2356H3.24805H7.74931H7.89931V18.0856V5.91455V5.76455H7.74931H3.24805H3.09805V5.91455V18.0856ZM3.76369 6.4302H7.23366V17.5699H3.76369V6.4302Z" fill="black" stroke="black" stroke-width="0.3"/>
<path d="M9.59927 19.823V19.973H9.74927H14.2505H14.4005V19.823V4.17676V4.02676H14.2505H9.74927H9.59927V4.17676V19.823ZM10.2649 4.6924H13.7349V19.3073H10.2649V4.6924Z" fill="black" stroke="black" stroke-width="0.3"/>
<path d="M16.1007 18.0856V18.2356H16.2507H20.752H20.902V18.0856V5.91455V5.76455H20.752H16.2507H16.1007V5.91455V18.0856ZM16.7664 6.4302H20.2364V17.5699H16.7664V6.4302Z" fill="black" stroke="black" stroke-width="0.3"/>
</svg>
