<svg width="16" height="16" viewBox="0 0 16 16" fill="none" xmlns="http://www.w3.org/2000/svg">
<path d="M6.5 2.125H4C3.76794 2.125 3.54538 2.21719 3.38128 2.38128C3.21719 2.54538 3.125 2.76794 3.125 3V13C3.125 13.2321 3.21719 13.4546 3.38128 13.6187C3.54538 13.7828 3.76794 13.875 4 13.875H6.5C6.61491 13.875 6.72869 13.8524 6.83485 13.8084C6.94101 13.7644 7.03747 13.7 7.11872 13.6187C7.19997 13.5375 7.26442 13.441 7.30839 13.3348C7.35237 13.2287 7.375 13.1149 7.375 13V3C7.375 2.88509 7.35237 2.77131 7.30839 2.66515C7.26442 2.55899 7.19997 2.46253 7.11872 2.38128C7.03747 2.30003 6.94101 2.23558 6.83485 2.19161C6.72869 2.14763 6.61491 2.125 6.5 2.125ZM6.625 13C6.625 13.0332 6.61183 13.0649 6.58839 13.0884C6.56495 13.1118 6.53315 13.125 6.5 13.125H4C3.96685 13.125 3.93505 13.1118 3.91161 13.0884C3.88817 13.0649 3.875 13.0332 3.875 13V3C3.875 2.96685 3.88817 2.93505 3.91161 2.91161C3.93505 2.88817 3.96685 2.875 4 2.875H6.5C6.53315 2.875 6.56495 2.88817 6.58839 2.91161C6.61183 2.93505 6.625 2.96685 6.625 3V13ZM12 2.125H9.5C9.26794 2.125 9.04538 2.21719 8.88128 2.38128C8.71719 2.54538 8.625 2.76794 8.625 3V13C8.625 13.2321 8.71719 13.4546 8.88128 13.6187C9.04538 13.7828 9.26794 13.875 9.5 13.875H12C12.2321 13.875 12.4546 13.7828 12.6187 13.6187C12.7828 13.4546 12.875 13.2321 12.875 13V3C12.875 2.76794 12.7828 2.54538 12.6187 2.38128C12.4546 2.21719 12.2321 2.125 12 2.125ZM12.125 13C12.125 13.0332 12.1118 13.0649 12.0884 13.0884C12.0649 13.1118 12.0332 13.125 12 13.125H9.5C9.46685 13.125 9.43505 13.1118 9.41161 13.0884C9.38817 13.0649 9.375 13.0332 9.375 13V3C9.375 2.96685 9.38817 2.93505 9.41161 2.91161C9.43505 2.88817 9.46685 2.875 9.5 2.875H12C12.0332 2.875 12.0649 2.88817 12.0884 2.91161C12.1118 2.93505 12.125 2.96685 12.125 3V13Z" fill="black"/>
</svg>
