<svg width="48" height="48" viewBox="0 0 48 48" fill="none" xmlns="http://www.w3.org/2000/svg">
<path d="M43.1718 33.9309L38.7582 26.2915L29.6414 27.4997L31.3916 30.5203C31.5608 30.8214 31.6491 31.161 31.648 31.5061C31.6468 31.8513 31.5562 32.1903 31.385 32.4902L43.3008 39.3561C43.7789 38.5253 44.0202 37.5798 43.9987 36.6219C43.9771 35.6641 43.6934 34.7303 43.1784 33.9217L43.1718 33.9309Z" fill="#009EFF"/>
<path d="M25.7607 20.8099L29.6335 27.5077L38.7503 26.2995L28.715 8.95221H28.7018C28.2704 8.07219 27.601 7.33013 26.7692 6.80983C25.9374 6.28953 24.9764 6.01173 23.9947 6.00781V19.7593C24.3566 19.7595 24.7117 19.8572 25.0225 20.0421C25.3334 20.2271 25.5884 20.4923 25.7607 20.8099Z" fill="#00CFFF"/>
<path d="M22.2248 20.81C22.3967 20.4921 22.6517 20.2266 22.9626 20.0417C23.2735 19.8567 23.6288 19.7592 23.9908 19.7594V6H23.9697C23.1137 6.00081 22.2708 6.20995 21.5141 6.60929C20.7574 7.00863 20.1097 7.58612 19.6272 8.29171L14.9069 16.4525L20.526 23.7439L22.2248 20.81Z" fill="#00E1FF"/>
<path d="M16.3453 31.5067C16.3462 31.162 16.4369 30.8235 16.6084 30.5243L20.5312 23.7438L14.9122 16.4524L4.55839 34.3132L4.57947 34.3473C4.17887 35.1273 3.98018 35.995 4.00156 36.8713C4.02293 37.7475 4.26372 38.6045 4.70187 39.3641L16.6111 32.4982C16.4377 32.1964 16.346 31.8546 16.3453 31.5067Z" fill="#007FFF"/>
<path d="M18.4099 33.5094H18.352C17.9988 33.5093 17.6519 33.4163 17.3462 33.2397C17.0405 33.063 16.787 32.8091 16.6111 32.5034L4.69659 39.3693C5.15555 40.1627 5.81439 40.8225 6.60778 41.2832C7.40118 41.744 8.30149 41.9897 9.21941 41.9959H18.306L21.8195 33.5041L18.4099 33.5094Z" fill="#005BDF"/>
<path d="M31.3784 32.4983C31.203 32.805 30.9495 33.0599 30.6435 33.2373C30.3375 33.4147 29.99 33.5081 29.6362 33.5082H21.8195L18.306 42H38.7292C39.6552 42.0002 40.5649 41.7566 41.3664 41.2938C42.1679 40.831 42.8329 40.1654 43.2943 39.3642L31.3784 32.4983Z" fill="#0043C1"/>
</svg>
