<svg width="100" height="91" viewBox="0 0 100 91" fill="none" xmlns="http://www.w3.org/2000/svg">
    <defs>
        <clipPath id="clip0_2818_222344">
            <rect width="100" height="90.1905" fill="white" />
        </clipPath>
    </defs>
    <g clip-path="url(#clip0_2818_222344)">
        <path d="M97.9442 69.9766L86.898 50.8375L64.1064 53.8639L68.479 61.4402C68.9081 62.1939 69.1337 63.0462 69.1337 63.9134C69.1337 64.7807 68.9081 65.633 68.479 66.3867L98.2677 83.6056C99.4633 81.5243 100.067 79.1556 100.012 76.756C99.9581 74.3564 99.2483 72.0173 97.9598 69.9922L97.9442 69.9766Z" fill="#969696" />
        <path d="M54.4169 37.0884L64.1012 53.8638L86.8928 50.8375L61.8054 7.37803H61.7741C60.6954 5.17378 59.0221 3.3149 56.943 2.01121C54.8639 0.707513 52.4618 0.0109026 50.0078 0V34.4378C50.9136 34.4402 51.8019 34.6879 52.5782 35.1546C53.3545 35.6213 53.9899 36.2896 54.4169 37.0884Z" fill="#AFAFAF" />
        <path d="M45.5783 37.0884C46.0121 36.2973 46.6509 35.6376 47.4276 35.1785C48.2043 34.7195 49.0903 34.478 49.9926 34.4795V0H49.9352C47.7958 0.00199869 45.6891 0.525786 43.7979 1.52595C41.9067 2.52612 40.288 3.97247 39.0821 5.73963L27.2793 26.1831L41.331 44.4456L45.5783 37.0884Z" fill="#D5D5D5" />
        <path d="M30.8742 63.9029C30.8722 63.0397 31.0952 62.1909 31.5212 61.4401L41.3307 44.4508L27.2791 26.1884L1.39334 70.9627L1.44552 71.0462C0.445716 73.0012 -0.0498109 75.175 0.00395189 77.3701C0.0577147 79.5653 0.659063 81.7122 1.75337 83.616L31.5421 66.3971C31.1046 65.6386 30.8743 64.7785 30.8742 63.9029Z" fill="#8E8E8E" />
        <path d="M36.0394 68.9173H35.8933C35.0102 68.9181 34.1425 68.6855 33.3783 68.2429C32.614 67.8003 31.9804 67.1635 31.5416 66.3971L1.75293 83.616C2.89842 85.6012 4.54312 87.2524 6.52383 88.4057C8.50454 89.559 10.7524 90.1742 13.0443 90.1905H35.7785L44.5653 68.9173H36.0394Z" fill="#5E5E5E" />
        <path d="M68.4639 66.3866C68.0256 67.1554 67.3916 67.7944 66.6264 68.2389C65.8611 68.6834 64.9919 68.9174 64.107 68.9173H44.5662L35.7793 90.1904H86.8411C89.1559 90.192 91.4301 89.5825 93.4338 88.4235C95.4375 87.2645 97.0998 85.5971 98.2526 83.5898L68.4639 66.3866Z" fill="#4C4C4C" />
    </g>
</svg>
    